<svg width="206.66" height="94.18" viewBox="0 0 206.66 94.18" xmlns="http://www.w3.org/2000/svg" xmlns:xlink="http://www.w3.org/1999/xlink" overflow="visible"><defs></defs><g><path d="M0 83.65C0.07 83.19 0.12 82.73 0.22 82.28 0.59 80.48 0.95 78.68 1.36 76.89 2.33 72.6 3.32 68.32 4.3 64.03 5.15 60.35 6 56.67 6.85 52.99 8.29 46.75 9.73 40.51 11.17 34.27 12.13 30.11 13.09 25.95 14.05 21.79 14.86 18.3 15.64 14.81 16.49 11.33 17.03 9.11 17.84 6.98 19.17 5.09 20.8 2.76 23.06 1.37 25.79 0.7 27.65 0.24 29.55 0.07 31.46 0.07 42.53 0.04 53.6 0.03 64.67 0.02 69.33 0.02 73.98 0.02 78.64 0.02 87.07 0.01 95.5 0 103.93 0 107.16 0 110.38 0.01 113.61 0.06 115.59 0.09 117.55 0.33 119.38 1.16 121.95 2.32 123.41 4.33 123.8 7.11 124.1 9.17 123.81 11.2 123.38 13.21 122.47 17.44 121.53 21.65 120.59 25.87 119.46 30.96 118.32 36.05 117.17 41.14 115.84 47.05 114.52 52.96 113.19 58.86 112.13 63.57 111.06 68.27 109.99 72.98 109.23 76.31 108.5 79.65 107.7 82.96 107.15 85.24 106.21 87.37 104.74 89.23 103.07 91.34 100.89 92.66 98.32 93.39 96.6 93.87 94.84 94.08 93.05 94.09 89.17 94.12 85.3 94.12 81.42 94.13 67.4 94.15 53.38 94.16 39.35 94.17 34.47 94.17 29.59 94.16 24.72 94.15 20.34 94.14 15.95 94.13 11.57 94.1 9.48 94.08 7.4 93.9 5.41 93.17 2.63 92.16 0.85 90.24 0.21 87.32 0.13 86.96 0.07 86.59-1.80411e-15 86.22 0 85.37 0 84.51 0 83.65ZM72.12 4.97C66.68 4.97 61.25 4.97 55.81 4.97 51.37 4.97 46.94 4.98 42.5 4.99 39.03 5 35.55 5.02 32.08 5.03 30.48 5.03 28.89 5.12 27.32 5.44 25.1 5.89 23.42 7.06 22.53 9.17 21.96 10.52 21.45 11.92 21.1 13.34 20.12 17.33 19.23 21.35 18.3 25.36 17.41 29.23 16.51 33.09 15.62 36.96 14.17 43.26 12.73 49.57 11.28 55.87 10.52 59.19 9.75 62.5 8.99 65.82 7.82 70.93 6.65 76.03 5.5 81.14 5.13 82.77 4.84 84.42 5.08 86.12 5.22 87.09 5.66 87.82 6.57 88.24 7.95 88.87 9.44 89.08 10.93 89.1 15.13 89.17 19.33 89.19 23.53 89.19 42.78 89.19 62.03 89.18 81.29 89.18 84.58 89.18 87.87 89.16 91.16 89.14 92.85 89.13 94.54 89.16 96.2 88.81 97.96 88.44 99.52 87.73 100.71 86.34 101.71 85.17 102.34 83.81 102.72 82.35 103.28 80.17 103.78 77.98 104.28 75.78 105.35 71.1 106.41 66.42 107.47 61.74 108.28 58.14 109.1 54.55 109.91 50.95 110.89 46.57 111.87 42.19 112.85 37.8 113.59 34.51 114.33 31.21 115.06 27.92 116.12 23.13 117.17 18.34 118.23 13.55 118.63 11.73 119.05 9.91 118.89 8.02 118.8 6.91 118.34 6.08 117.23 5.68 116.14 5.29 115.02 5.1 113.88 5.07 111.48 5.01 109.07 4.99 106.66 4.98 95.14 4.96 83.63 4.97 72.12 4.97Z"/><path d="M72.12 4.97C83.63 4.97 95.14 4.97 106.66 4.97 109.07 4.97 111.47 4.99 113.88 5.06 115.02 5.09 116.14 5.28 117.23 5.67 118.34 6.07 118.8 6.9 118.89 8.01 119.05 9.9 118.63 11.72 118.23 13.54 117.17 18.33 116.12 23.12 115.06 27.91 114.33 31.21 113.58 34.5 112.85 37.79 111.87 42.17 110.89 46.55 109.91 50.94 109.1 54.54 108.29 58.13 107.47 61.73 106.41 66.41 105.35 71.09 104.28 75.77 103.78 77.96 103.28 80.16 102.72 82.34 102.34 83.8 101.7 85.17 100.71 86.33 99.52 87.72 97.96 88.43 96.2 88.8 94.53 89.15 92.84 89.12 91.16 89.13 87.87 89.14 84.58 89.17 81.29 89.17 62.04 89.18 42.79 89.19 23.53 89.18 19.33 89.18 15.13 89.16 10.93 89.09 9.44 89.07 7.96 88.87 6.57 88.23 5.66 87.81 5.21 87.08 5.08 86.11 4.84 84.42 5.13 82.77 5.5 81.13 6.65 76.02 7.82 70.91 8.99 65.81 9.75 62.49 10.52 59.18 11.28 55.86 12.73 49.56 14.17 43.25 15.62 36.95 16.51 33.08 17.41 29.22 18.3 25.35 19.23 21.34 20.11 17.32 21.1 13.33 21.45 11.91 21.97 10.51 22.53 9.16 23.42 7.05 25.09 5.87 27.32 5.43 28.89 5.11 30.48 5.02 32.08 5.02 35.55 5.01 39.03 4.99 42.5 4.98 46.94 4.97 51.37 4.97 55.81 4.96 61.25 4.96 66.68 4.97 72.12 4.97ZM64.55 46.89C64.45 46.98 64.37 47.05 64.29 47.11 62.52 48.44 60.75 49.78 58.97 51.1 53.68 55.03 48.38 58.95 43.08 62.86 39.29 65.66 35.49 68.43 31.69 71.22 30.55 72.06 29.39 72.87 28.42 73.92 27.14 75.3 26.91 76.83 27.76 78.49 28.2 79.34 28.78 80.08 29.51 80.71 30.66 81.7 31.96 81.99 33.43 81.62 34.45 81.36 35.36 80.87 36.2 80.25 38.81 78.34 41.4 76.42 44 74.5 48.48 71.19 52.95 67.88 57.43 64.59 63.5 60.13 69.59 55.69 75.67 51.23 76.67 50.5 77.67 49.78 78.43 48.79 79.32 47.63 79.59 46.35 78.96 45 78.66 44.36 78.27 43.75 77.82 43.21 76.98 42.21 76.06 41.26 75.17 40.3 73.25 38.2 71.33 36.1 69.41 34 68.07 32.53 66.73 31.06 65.4 29.59 63.33 27.29 61.26 24.99 59.19 22.69 57.25 20.54 55.33 18.36 53.37 16.23 52.52 15.31 51.66 14.37 50.67 13.59 49.15 12.39 47.41 12.02 45.55 12.74 43.94 13.37 42.64 14.43 41.64 15.84 40.95 16.82 40.66 17.92 40.9 19.12 41.08 20.03 41.45 20.86 42.03 21.57 42.92 22.67 43.87 23.72 44.81 24.77 46.7 26.88 48.61 28.97 50.5 31.08 52.49 33.3 54.47 35.52 56.44 37.74 58.66 40.24 60.87 42.73 63.09 45.23 63.58 45.78 64.06 46.33 64.55 46.89ZM68.13 79.31C72.01 79.31 75.88 79.31 79.76 79.31 81.07 79.31 82.18 78.89 83.02 77.87 84.13 76.52 84.42 74.96 84.14 73.26 83.8 71.24 82.32 69.33 79.56 69.36 74.42 69.41 69.28 69.37 64.15 69.37 61.57 69.37 59 69.36 56.42 69.37 55.06 69.38 53.93 69.9 53.1 71.01 52.26 72.13 51.98 73.4 52.06 74.78 52.18 76.86 53.6 79.37 56.7 79.31 60.51 79.25 64.32 79.31 68.13 79.31Z" fill="#0377BE"/><path d="M64.55 46.89C64.06 46.33 63.59 45.78 63.11 45.24 60.89 42.74 58.68 40.24 56.46 37.75 54.48 35.53 52.5 33.3 50.52 31.09 48.63 28.98 46.72 26.89 44.83 24.78 43.89 23.73 42.94 22.67 42.05 21.58 41.47 20.87 41.1 20.04 40.92 19.13 40.68 17.93 40.96 16.83 41.66 15.85 42.66 14.44 43.96 13.38 45.57 12.75 47.43 12.02 49.17 12.4 50.69 13.6 51.67 14.37 52.54 15.31 53.39 16.24 55.35 18.37 57.27 20.55 59.21 22.7 61.28 25 63.35 27.3 65.42 29.6 66.75 31.08 68.09 32.55 69.43 34.01 71.35 36.11 73.27 38.21 75.19 40.31 76.08 41.28 77 42.22 77.84 43.22 78.29 43.76 78.68 44.38 78.98 45.01 79.62 46.36 79.35 47.64 78.45 48.8 77.69 49.79 76.68 50.51 75.69 51.24 69.61 55.69 63.52 60.14 57.45 64.6 52.96 67.89 48.49 71.21 44.02 74.51 41.42 76.43 38.83 78.35 36.22 80.26 35.38 80.87 34.47 81.37 33.45 81.63 31.98 82.01 30.68 81.71 29.53 80.72 28.8 80.09 28.22 79.35 27.78 78.5 26.93 76.83 27.16 75.31 28.44 73.93 29.41 72.88 30.57 72.07 31.71 71.23 35.51 68.44 39.31 65.66 43.1 62.87 48.4 58.96 53.7 55.03 58.99 51.11 60.77 49.79 62.54 48.45 64.31 47.12 64.37 47.05 64.44 46.97 64.55 46.89Z" fill="#FFFFFF"/><path d="M68.13 79.31C64.32 79.31 60.51 79.25 56.7 79.33 53.59 79.39 52.18 76.87 52.06 74.8 51.98 73.42 52.27 72.15 53.1 71.03 53.93 69.92 55.06 69.4 56.42 69.39 59 69.38 61.57 69.39 64.15 69.39 69.29 69.39 74.43 69.43 79.56 69.38 82.32 69.35 83.79 71.26 84.14 73.28 84.43 74.97 84.13 76.53 83.02 77.89 82.18 78.92 81.06 79.33 79.76 79.33 75.89 79.31 72.01 79.31 68.13 79.31Z" fill="#FFFFFF"/><path d="M109.56 63.22C115.74 57.03 121.63 51.14 127.67 45.09 129.66 47.07 131.73 49.1 133.74 51.18 134.03 51.48 134.18 52.03 134.19 52.46 134.22 58.01 134.21 63.56 134.21 69.4 132.69 69.4 131.3 69.4 129.9 69.4 125.77 69.4 121.63 69.46 117.5 69.34 116.61 69.32 115.58 68.84 114.89 68.25 113.04 66.68 111.35 64.93 109.56 63.22Z" stroke="#000000" stroke-width="5" stroke-miterlimit="10" fill="#0377BE"/><path d="M121.75 74.93C128.07 74.93 133.67 74.93 139.49 74.93 139.49 69.26 139.49 63.62 139.49 57.54 141.33 59.18 142.78 60.56 144.32 61.83 151.11 67.46 158.7 69.45 167.26 66.62 174.49 64.23 178.74 59.22 179.93 51.7 181.07 44.53 180.01 37.84 174.81 32.42 166.52 23.77 151.7 24.24 143.31 33.26 137.95 39.01 132.62 44.79 127.22 50.5 120.46 57.64 113.67 64.76 106.82 71.8 106.13 72.51 104.89 73.03 103.89 73.05 99.15 73.15 94.4 73.05 89.65 73.02 88.99 73.01 88.33 72.95 87.18 72.89 87.18 67.16 87.16 61.55 87.22 55.94 87.23 55.43 87.69 54.84 88.08 54.43 101.16 40.66 114.37 27.03 127.31 13.13 140.52-1.06 165.71-4.61 183.41 6.68 195.77 14.56 204.1 25.31 206.12 39.97 208.6 58.01 202.43 72.91 187.94 84.09 179.31 90.75 169.36 94.08 158.48 94.16 147.07 94.25 137.5 89.45 129.04 82.18 126.59 80.1 124.45 77.64 121.75 74.93ZM92.32 68.05C95.55 68.05 98.53 67.97 101.49 68.09 102.92 68.15 103.87 67.68 104.84 66.66 115.35 55.59 125.91 44.58 136.42 33.52 137.8 32.07 139.02 30.48 140.71 28.49 137.54 28.49 134.89 28.49 131.87 28.49 131.87 24.19 131.87 20.26 131.87 16.04 131.33 16.47 131.15 16.58 131.01 16.73 118.37 29.98 105.73 43.23 93.11 56.5 92.69 56.94 92.35 57.66 92.34 58.25 92.28 61.35 92.32 64.47 92.32 68.05ZM178.85 18.15C178.85 21.93 178.82 25.31 178.88 28.68 178.89 29.15 179.24 29.7 179.58 30.08 186.09 37.35 187.58 51.92 181.76 61.4 181.5 61.83 181.31 62.3 180.96 63.04 184.54 63.04 187.83 63.04 191.35 63.04 191.35 66.65 191.35 70.06 191.35 73.99 192.12 73.17 192.54 72.77 192.9 72.33 205.34 56.9 204.23 33.11 190.4 18.91 190.06 18.56 189.52 18.19 189.06 18.18 185.82 18.12 182.58 18.15 178.85 18.15ZM134.54 80.02C135.11 80.56 135.29 80.75 135.49 80.91 153.19 94.55 174.17 89.44 187.55 77.93 187.93 77.61 188.35 77.07 188.36 76.63 188.43 73.19 188.4 69.75 188.4 66.06 184.9 66.06 181.79 66.02 178.68 66.1 178.15 66.11 177.6 66.57 177.12 66.92 167.54 73.78 157.48 75.16 146.81 69.58 146.13 69.23 145.44 68.91 144.48 68.45 144.48 72.51 144.48 76.21 144.48 80.03 141.24 80.02 138.14 80.02 134.54 80.02ZM175.87 15.17C179.3 15.17 182.55 15.17 185.84 15.17 185.78 14.72 185.8 14.62 185.76 14.59 171.26 2.08 149.45 2.42 135.98 12.4 135.55 12.72 135.09 13.33 135.08 13.82 135.01 17.66 135.04 21.5 135.04 25.53 138.23 25.53 141.13 25.56 144.03 25.5 144.59 25.49 145.18 25.16 145.69 24.86 151.56 21.41 157.86 20.61 164.5 21.7 168.54 22.37 172.24 23.87 175.87 26.43 175.87 22.54 175.87 19.04 175.87 15.17Z"/><path d="M92.32 68.05C92.32 64.47 92.28 61.36 92.36 58.25 92.37 57.65 92.71 56.94 93.13 56.5 105.74 43.23 118.39 29.98 131.03 16.73 131.17 16.58 131.35 16.47 131.89 16.04 131.89 20.26 131.89 24.19 131.89 28.49 134.9 28.49 137.56 28.49 140.73 28.49 139.04 30.49 137.81 32.08 136.44 33.52 125.92 44.58 115.36 55.59 104.86 66.66 103.89 67.68 102.94 68.14 101.51 68.09 98.53 67.96 95.55 68.05 92.32 68.05Z" fill="#ABB7BE"/><path d="M178.85 18.15C182.58 18.15 185.82 18.12 189.06 18.18 189.51 18.19 190.05 18.55 190.4 18.91 204.23 33.11 205.34 56.9 192.9 72.33 192.54 72.78 192.12 73.17 191.35 73.99 191.35 70.07 191.35 66.66 191.35 63.04 187.82 63.04 184.53 63.04 180.96 63.04 181.32 62.3 181.5 61.83 181.76 61.4 187.58 51.91 186.09 37.35 179.58 30.08 179.24 29.7 178.89 29.16 178.88 28.68 178.82 25.31 178.85 21.93 178.85 18.15Z" fill="#5F9ABD"/><path d="M134.54 80.02C138.14 80.02 141.23 80.02 144.48 80.02 144.48 76.19 144.48 72.49 144.48 68.44 145.43 68.9 146.13 69.22 146.81 69.57 157.48 75.15 167.54 73.77 177.12 66.91 177.6 66.57 178.15 66.11 178.68 66.09 181.79 66.01 184.9 66.05 188.4 66.05 188.4 69.74 188.43 73.18 188.36 76.62 188.35 77.06 187.93 77.6 187.55 77.92 174.17 89.43 153.19 94.54 135.49 80.9 135.29 80.75 135.12 80.56 134.54 80.02Z" fill="#3A8DBF"/><path d="M175.87 15.17C175.87 19.05 175.87 22.54 175.87 26.43 172.24 23.86 168.55 22.36 164.5 21.7 157.86 20.61 151.56 21.41 145.69 24.86 145.18 25.16 144.59 25.49 144.03 25.5 141.13 25.56 138.23 25.53 135.04 25.53 135.04 21.5 135.01 17.66 135.08 13.82 135.09 13.34 135.55 12.72 135.98 12.4 149.46 2.41 171.27 2.07 185.76 14.59 185.8 14.62 185.78 14.72 185.84 15.17 182.56 15.17 179.3 15.17 175.87 15.17Z" fill="#84A8BD"/></g></svg>