<svg width="197pt" height="37pt" viewBox="-0.4 -0.4 198 38" xmlns="http://www.w3.org/2000/svg"><g id="fontsvg1681273044901" stroke-linecap="round" fill-rule="evenodd" stroke="#44ff00" stroke-width="0.2mm" fill="#ffffff"><path d="M 143.34 36.484 L 138.184 36.484 L 138.184 13.984 A 6.353 6.353 0 0 0 138.108 12.959 Q 137.811 11.149 136.335 11.077 A 2.55 2.55 0 0 0 136.211 11.074 A 2.759 2.759 0 0 0 135.427 11.18 A 2.044 2.044 0 0 0 134.375 11.895 A 2.698 2.698 0 0 0 133.934 12.751 Q 133.813 13.13 133.764 13.59 A 6.288 6.288 0 0 0 133.73 14.258 L 133.73 36.484 L 128.555 36.484 L 128.555 13.945 A 6.371 6.371 0 0 0 128.482 12.933 Q 128.195 11.16 126.779 11.078 A 2.417 2.417 0 0 0 126.641 11.074 Q 125.371 11.074 124.736 12.041 A 3.648 3.648 0 0 0 124.253 13.176 Q 124.102 13.787 124.102 14.531 L 124.102 36.484 L 118.926 36.484 L 118.926 7.188 L 124.102 7.188 L 124.102 10.371 A 5.498 5.498 0 0 1 124.7 8.955 A 4.511 4.511 0 0 1 125.723 7.783 Q 126.895 6.836 128.789 6.836 A 5.428 5.428 0 0 1 130.525 7.096 Q 132.356 7.711 133.125 9.785 Q 134.537 7.153 137.395 6.87 A 7.204 7.204 0 0 1 138.105 6.836 A 6.486 6.486 0 0 1 139.643 7.006 A 3.987 3.987 0 0 1 142.1 8.672 A 6.161 6.161 0 0 1 142.855 10.288 Q 143.105 11.085 143.226 12.058 A 16.138 16.138 0 0 1 143.34 14.043 L 143.34 36.484 Z M 172.734 36.484 L 167.578 36.484 L 167.578 13.984 A 6.353 6.353 0 0 0 167.503 12.959 Q 167.205 11.149 165.73 11.077 A 2.55 2.55 0 0 0 165.605 11.074 A 2.759 2.759 0 0 0 164.822 11.18 A 2.044 2.044 0 0 0 163.77 11.895 A 2.698 2.698 0 0 0 163.329 12.751 Q 163.208 13.13 163.159 13.59 A 6.288 6.288 0 0 0 163.125 14.258 L 163.125 36.484 L 157.949 36.484 L 157.949 13.945 A 6.371 6.371 0 0 0 157.876 12.933 Q 157.589 11.16 156.174 11.078 A 2.417 2.417 0 0 0 156.035 11.074 Q 154.766 11.074 154.131 12.041 A 3.648 3.648 0 0 0 153.647 13.176 Q 153.496 13.787 153.496 14.531 L 153.496 36.484 L 148.32 36.484 L 148.32 7.188 L 153.496 7.188 L 153.496 10.371 A 5.498 5.498 0 0 1 154.095 8.955 A 4.511 4.511 0 0 1 155.117 7.783 Q 156.289 6.836 158.184 6.836 A 5.428 5.428 0 0 1 159.919 7.096 Q 161.75 7.711 162.52 9.785 Q 163.931 7.153 166.79 6.87 A 7.204 7.204 0 0 1 167.5 6.836 A 6.486 6.486 0 0 1 169.038 7.006 A 3.987 3.987 0 0 1 171.494 8.672 A 6.161 6.161 0 0 1 172.25 10.288 Q 172.5 11.085 172.621 12.058 A 16.138 16.138 0 0 1 172.734 14.043 L 172.734 36.484 Z M 4.473 36.484 L 0.254 36.484 L 2.461 25.176 L 0 25.176 L 0 21.777 L 3.125 21.777 L 4.199 16.348 L 1.309 16.348 L 1.309 12.969 L 4.863 12.969 L 7.051 2.07 L 11.289 2.07 L 9.082 12.969 L 12.754 12.969 L 14.941 2.07 L 19.18 2.07 L 17.012 12.969 L 19.414 12.969 L 19.414 16.348 L 16.348 16.348 L 15.273 21.777 L 18.105 21.777 L 18.105 25.176 L 14.59 25.176 L 12.363 36.484 L 8.145 36.484 L 10.352 25.176 L 6.68 25.176 L 4.473 36.484 Z M 66.348 36.484 L 61.113 36.484 L 61.113 2.109 L 66.348 2.109 L 66.348 16.016 L 71.035 16.016 L 71.035 2.109 L 76.27 2.109 L 76.27 36.484 L 71.035 36.484 L 71.035 20.508 L 66.348 20.508 L 66.348 36.484 Z M 98.906 29.844 L 98.906 7.188 L 104.102 7.188 L 104.102 29.043 A 11.71 11.71 0 0 0 104.137 29.987 Q 104.211 30.904 104.443 31.489 A 2.606 2.606 0 0 0 104.551 31.729 Q 105 32.598 106.23 32.598 Q 108.191 32.598 108.525 30.179 A 8.046 8.046 0 0 0 108.594 29.082 L 108.613 7.188 L 113.77 7.188 L 113.77 36.484 L 108.594 36.484 L 108.594 33.438 A 6.579 6.579 0 0 1 107.77 35.051 Q 106.517 36.799 104.267 36.854 A 6.023 6.023 0 0 1 104.121 36.855 A 5.439 5.439 0 0 1 101.719 36.361 Q 99.421 35.244 99.001 31.603 A 15.361 15.361 0 0 1 98.906 29.844 Z M 42.754 26.816 L 42.754 23.75 L 47.715 23.75 L 47.715 27.207 A 26.757 26.757 0 0 0 47.745 28.536 Q 47.805 29.739 47.984 30.527 A 4.306 4.306 0 0 0 48.203 31.24 Q 48.608 32.203 49.603 32.368 A 2.668 2.668 0 0 0 50.039 32.402 A 2.915 2.915 0 0 0 50.691 32.335 Q 51.096 32.242 51.379 32.021 A 1.521 1.521 0 0 0 51.826 31.445 Q 52.266 30.488 52.266 28.32 A 10.152 10.152 0 0 0 52.1 26.44 A 7.525 7.525 0 0 0 51.484 24.541 Q 50.703 22.93 49.004 21.172 L 46.465 18.555 A 17.221 17.221 0 0 1 44.716 16.424 A 13.857 13.857 0 0 1 43.701 14.707 A 9.358 9.358 0 0 1 42.854 11.973 A 12.218 12.218 0 0 1 42.715 10.098 Q 42.715 5.947 44.274 3.876 A 5.331 5.331 0 0 1 44.355 3.77 Q 45.996 1.699 50 1.699 A 10.286 10.286 0 0 1 51.938 1.868 Q 52.987 2.07 53.777 2.512 A 4.306 4.306 0 0 1 55.42 4.111 Q 56.779 6.426 56.834 10.782 A 29.393 29.393 0 0 1 56.836 11.152 L 56.836 13.281 L 52.012 13.281 L 52.012 10.82 Q 52.012 8.878 51.752 7.79 A 4.077 4.077 0 0 0 51.582 7.236 Q 51.222 6.327 50.304 6.18 A 2.364 2.364 0 0 0 49.932 6.152 A 2.856 2.856 0 0 0 49.267 6.225 A 1.735 1.735 0 0 0 48.174 6.973 A 2.737 2.737 0 0 0 47.857 7.668 Q 47.651 8.337 47.638 9.3 A 9.717 9.717 0 0 0 47.637 9.434 Q 47.637 11.074 48.184 12.051 A 7.07 7.07 0 0 0 48.586 12.679 Q 49.021 13.292 49.71 14.064 A 28.784 28.784 0 0 0 50.156 14.551 L 52.988 17.617 A 20.875 20.875 0 0 1 54.85 19.927 A 15.686 15.686 0 0 1 56.201 22.285 A 12.07 12.07 0 0 1 57.275 26.9 A 14.08 14.08 0 0 1 57.285 27.441 A 22.913 22.913 0 0 1 57.157 29.956 Q 56.872 32.53 55.953 34.118 A 6.069 6.069 0 0 1 55.664 34.57 Q 54.306 36.502 51.24 36.814 A 12.318 12.318 0 0 1 49.99 36.875 A 9.944 9.944 0 0 1 47.912 36.673 Q 46.702 36.414 45.81 35.823 A 4.883 4.883 0 0 1 44.346 34.307 Q 42.785 31.789 42.755 27.01 A 30.013 30.013 0 0 1 42.754 26.816 Z M 80.742 26.816 L 80.742 23.75 L 85.703 23.75 L 85.703 27.207 A 26.757 26.757 0 0 0 85.734 28.536 Q 85.794 29.739 85.972 30.527 A 4.306 4.306 0 0 0 86.191 31.24 Q 86.596 32.203 87.591 32.368 A 2.668 2.668 0 0 0 88.027 32.402 A 2.915 2.915 0 0 0 88.679 32.335 Q 89.084 32.242 89.367 32.021 A 1.521 1.521 0 0 0 89.814 31.445 Q 90.254 30.488 90.254 28.32 A 10.152 10.152 0 0 0 90.088 26.44 A 7.525 7.525 0 0 0 89.473 24.541 Q 88.691 22.93 86.992 21.172 L 84.453 18.555 A 17.221 17.221 0 0 1 82.704 16.424 A 13.857 13.857 0 0 1 81.689 14.707 A 9.358 9.358 0 0 1 80.842 11.973 A 12.218 12.218 0 0 1 80.703 10.098 Q 80.703 5.947 82.262 3.876 A 5.331 5.331 0 0 1 82.344 3.77 Q 83.984 1.699 87.988 1.699 A 10.286 10.286 0 0 1 89.926 1.868 Q 90.975 2.07 91.765 2.512 A 4.306 4.306 0 0 1 93.408 4.111 Q 94.767 6.426 94.822 10.782 A 29.393 29.393 0 0 1 94.824 11.152 L 94.824 13.281 L 90 13.281 L 90 10.82 Q 90 8.878 89.741 7.79 A 4.077 4.077 0 0 0 89.57 7.236 Q 89.21 6.327 88.292 6.18 A 2.364 2.364 0 0 0 87.92 6.152 A 2.856 2.856 0 0 0 87.255 6.225 A 1.735 1.735 0 0 0 86.162 6.973 A 2.737 2.737 0 0 0 85.845 7.668 Q 85.639 8.337 85.626 9.3 A 9.717 9.717 0 0 0 85.625 9.434 Q 85.625 11.074 86.172 12.051 A 7.07 7.07 0 0 0 86.574 12.679 Q 87.009 13.292 87.698 14.064 A 28.784 28.784 0 0 0 88.145 14.551 L 90.977 17.617 A 20.875 20.875 0 0 1 92.838 19.927 A 15.686 15.686 0 0 1 94.189 22.285 A 12.07 12.07 0 0 1 95.263 26.9 A 14.08 14.08 0 0 1 95.273 27.441 A 22.913 22.913 0 0 1 95.145 29.956 Q 94.86 32.53 93.941 34.118 A 6.069 6.069 0 0 1 93.652 34.57 Q 92.294 36.502 89.228 36.814 A 12.318 12.318 0 0 1 87.979 36.875 A 9.944 9.944 0 0 1 85.9 36.673 Q 84.69 36.414 83.798 35.823 A 4.883 4.883 0 0 1 82.334 34.307 Q 80.774 31.789 80.743 27.01 A 30.013 30.013 0 0 1 80.742 26.816 Z M 196.992 36.68 L 193.477 36.68 Q 191.319 36.68 190.28 36.029 A 2.207 2.207 0 0 1 189.805 35.635 A 2.931 2.931 0 0 1 189.271 34.735 Q 188.931 33.867 188.877 32.531 A 12.911 12.911 0 0 1 188.867 32.012 L 188.867 11.543 L 186.484 11.543 L 186.484 7.793 L 188.867 7.793 L 188.867 2.09 L 194.043 2.09 L 194.043 7.793 L 196.895 7.793 L 196.895 11.543 L 194.043 11.543 L 194.043 31.113 A 3.085 3.085 0 0 0 194.072 31.558 Q 194.151 32.092 194.435 32.34 A 0.807 0.807 0 0 0 194.58 32.441 Q 195.117 32.734 196.992 32.734 L 196.992 36.68 Z M 30.234 36.484 L 25 36.484 L 25 2.109 L 32.891 2.109 A 10.261 10.261 0 0 1 34.839 2.281 Q 35.929 2.492 36.748 2.963 A 4.469 4.469 0 0 1 38.369 4.541 A 8.615 8.615 0 0 1 39.218 6.495 Q 39.816 8.454 39.909 11.278 A 31.161 31.161 0 0 1 39.922 11.797 L 39.922 12.52 A 28.861 28.861 0 0 1 39.794 15.34 Q 39.49 18.422 38.467 20.283 Q 37.079 22.808 33.425 22.924 A 11.261 11.261 0 0 1 33.066 22.93 L 30.234 22.93 L 30.234 36.484 Z M 182.969 36.484 L 177.793 36.484 L 177.793 7.188 L 182.969 7.188 L 182.969 36.484 Z M 30.234 6.133 L 30.234 18.613 L 32.031 18.613 A 3.283 3.283 0 0 0 32.831 18.523 Q 33.405 18.379 33.769 18.004 A 1.976 1.976 0 0 0 34.189 17.334 A 4.799 4.799 0 0 0 34.407 16.55 Q 34.66 15.291 34.685 12.97 A 48.305 48.305 0 0 0 34.688 12.461 L 34.688 11.797 Q 34.672 9.453 34.363 8.138 A 5.054 5.054 0 0 0 34.15 7.441 A 2.083 2.083 0 0 0 33.622 6.65 Q 33.053 6.133 32.07 6.133 L 30.234 6.133 Z M 182.949 4.492 L 177.734 4.492 L 177.734 0 L 182.949 0 L 182.949 4.492 Z M 8.418 16.406 L 7.344 21.797 L 11.035 21.797 L 12.109 16.406 L 8.418 16.406 Z" vector-effect="non-scaling-stroke"/></g></svg>